<?xml version="1.0" encoding="UTF-8"?>
<svg width="512" height="512" viewBox="0 0 512 512" xmlns="http://www.w3.org/2000/svg">
  <defs>
    <linearGradient id="grad" x1="0%" y1="0%" x2="100%" y2="100%">
      <stop offset="0%" style="stop-color:#FF6347;stop-opacity:1" />
      <stop offset="100%" style="stop-color:#FF8367;stop-opacity:1" />
    </linearGradient>
    <filter id="shadow">
      <feDropShadow dx="0" dy="4" stdDeviation="10" flood-opacity="0.3" />
    </filter>
  </defs>
  
  <!-- Background Circle -->
  <circle cx="256" cy="256" r="240" fill="url(#grad)" filter="shadow" />
  
  <!-- Clock Face -->
  <circle cx="256" cy="256" r="200" fill="white" opacity="0.9" />
  
  <!-- Clock markers -->
  <g stroke="#333" stroke-width="6" stroke-linecap="round">
    <!-- 12, 3, 6, 9 hour markers -->
    <line x1="256" y1="96" x2="256" y2="116" />
    <line x1="416" y1="256" x2="396" y2="256" />
    <line x1="256" y1="416" x2="256" y2="396" />
    <line x1="96" y1="256" x2="116" y2="256" />
    
    <!-- Other hour markers -->
    <line x1="353" y1="159" x2="339" y2="173" />
    <line x1="353" y1="353" x2="339" y2="339" />
    <line x1="159" y1="353" x2="173" y2="339" />
    <line x1="159" y1="159" x2="173" y2="173" />
  </g>
  
  <!-- Clock hands -->
  <g stroke="#333" stroke-linecap="round">
    <!-- Hour hand -->
    <line x1="256" y1="256" x2="256" y2="180" stroke-width="10" />
    <!-- Minute hand -->
    <line x1="256" y1="256" x2="350" y2="256" stroke-width="6" />
  </g>
  
  <!-- Center dot -->
  <circle cx="256" cy="256" r="12" fill="#FF6347" />
  
  <!-- Small tomato icon at the bottom -->
  <g transform="translate(256, 340) scale(0.7)">
    <path d="M0,-30 C-15,-30 -20,-15 -20,0 C-20,20 -10,30 0,30 C10,30 20,20 20,0 C20,-15 15,-30 0,-30 Z" 
          fill="#FF6347" stroke="#7A2B21" stroke-width="2" />
    <path d="M0,-30 C-2,-35 0,-45 0,-45 L0,-55" stroke="#4CAF50" stroke-width="4" stroke-linecap="round" />
    <path d="M0,-45 L10,-50" stroke="#4CAF50" stroke-width="3" stroke-linecap="round" />
  </g>
</svg>
